<?xml version="1.0" standalone="no"?>
<!DOCTYPE svg PUBLIC "-//W3C//DTD SVG 20010904//EN"
 "http://www.w3.org/TR/2001/REC-SVG-20010904/DTD/svg10.dtd">
<svg version="1.0" xmlns="http://www.w3.org/2000/svg"
 width="64.000000pt" height="64.000000pt" viewBox="0 0 64.000000 64.000000"
 preserveAspectRatio="xMidYMid meet">

<g transform="translate(0.000000,64.000000) scale(0.100000,-0.100000)"
fill="#000000" stroke="none">
<path d="M295 584 c-9 -10 -13 -23 -9 -33 3 -9 9 -26 11 -38 3 -14 13 -23 23
-23 10 0 20 9 23 23 2 12 8 29 11 38 7 16 -16 49 -34 49 -5 0 -16 -7 -25 -16z"/>
<path d="M76 348 c-9 -12 -16 -32 -16 -43 0 -23 26 -65 41 -65 5 0 9 29 9 65
0 68 -9 79 -34 43z"/>
<path d="M530 305 c0 -36 4 -65 9 -65 15 0 41 42 41 65 0 23 -26 65 -41 65 -5
0 -9 -29 -9 -65z"/>
<path d="M190 335 c-26 -32 13 -81 48 -59 22 14 27 41 12 59 -16 19 -44 19
-60 0z"/>
<path d="M390 335 c-15 -18 -10 -45 13 -59 34 -22 73 27 47 59 -16 19 -44 19
-60 0z"/>
</g>
</svg>
