<?xml version="1.0" standalone="no"?>
<!DOCTYPE svg PUBLIC "-//W3C//DTD SVG 20010904//EN"
 "http://www.w3.org/TR/2001/REC-SVG-20010904/DTD/svg10.dtd">
<svg version="1.0" xmlns="http://www.w3.org/2000/svg"
 width="48.000000pt" height="48.000000pt" viewBox="0 0 48.000000 48.000000"
 preserveAspectRatio="xMidYMid meet">

<g transform="translate(0.000000,48.000000) scale(0.100000,-0.100000)"
fill="#000000" stroke="none">
<path d="M212 448 c-16 -16 -15 -43 3 -58 29 -24 17 -45 -32 -59 -56 -14 -110
-53 -126 -89 l-12 -26 -5 30 c-3 17 -11 29 -20 29 -12 0 -15 -18 -15 -95 0
-84 2 -95 18 -94 13 1 17 -6 17 -36 0 -28 -5 -40 -17 -43 -10 -3 88 -5 217 -5
129 0 227 2 218 5 -13 3 -18 15 -18 43 0 30 4 37 18 36 15 -1 17 10 17 94 0
78 -3 95 -15 95 -9 0 -17 -13 -21 -35 -4 -19 -7 -26 -8 -16 -2 33 -75 93 -130
107 -54 13 -66 34 -36 59 28 23 11 70 -25 70 -9 0 -21 -5 -28 -12z m28 -6 c0
-13 -12 -22 -22 -16 -10 6 -1 24 13 24 5 0 9 -4 9 -8z m-91 -150 c-41 -36 -58
-104 -51 -199 5 -70 4 -73 -17 -73 -20 0 -21 5 -21 93 0 107 16 149 69 184 47
32 58 29 20 -5z m35 -108 c31 -30 9 -84 -34 -84 -43 0 -65 54 -34 84 8 9 24
16 34 16 10 0 26 -7 34 -16z m180 0 c31 -30 9 -84 -34 -84 -24 0 -50 26 -50
50 0 43 54 65 84 34z"/>
<path d="M124 166 c-10 -26 4 -48 28 -44 17 2 23 10 23 28 0 18 -6 26 -23 28
-13 2 -25 -3 -28 -12z"/>
<path d="M304 166 c-10 -26 4 -48 28 -44 17 2 23 10 23 28 0 18 -6 26 -23 28
-13 2 -25 -3 -28 -12z"/>
</g>
</svg>
