<svg xmlns="http://www.w3.org/2000/svg" width="80" height="88" fill="none" class="w_80px h_88px mdToXl:w_72px mdToXl:h_80px mdDown:w_50px mdDown:h_56px" viewBox="0 0 80 88"><g fill="#b72026"><path d="M25.133 51.712H22.66c.435.027.788.38.788.816v9.222a.43.43 0 0 1-.435.435H21.79a.43.43 0 0 1-.434-.435V51.712h-2.718c-.217 0-.407-.19-.407-.435v-1.224a.44.44 0 0 1 .38-.436h6.522a.44.44 0 0 1 .407.436v1.224c0 .245-.19.435-.407.435M12.552 81.798H5.54c0 .816.652 1.469 1.467 1.469h5.136v1.36c0 .462.38.843.842.843h2.446c.217 0 .38.163.38.381v1.496c0 .327.272.599.598.599h4.51a.476.476 0 0 0 .463-.463v-2.367a.615.615 0 0 0-.625-.625h-1.223c-.353 0-.652.3-.652.653v1.088c0-.218.163-.381.38-.381h.544c.136 0 .217.109.217.218v.326a.214.214 0 0 1-.217.218h-2.283a.42.42 0 0 1-.407-.408V84.68a.76.76 0 0 0-.761-.761H13.8a.33.33 0 0 1-.326-.327v-.87a.917.917 0 0 0-.923-.925M67.441 81.798h7.01c0 .816-.651 1.496-1.494 1.469H67.85v1.36c0 .462-.38.843-.843.843h-2.445a.37.37 0 0 0-.38.381v1.496a.603.603 0 0 1-.598.599h-4.511a.476.476 0 0 1-.462-.463v-2.367c0-.353.272-.625.625-.625h1.223c.353 0 .652.3.652.653v1.088a.37.37 0 0 0-.38-.381h-.544a.214.214 0 0 0-.218.218v.326c0 .136.11.218.218.218h2.282c.218 0 .408-.19.408-.408V84.68a.76.76 0 0 1 .76-.761h2.555a.33.33 0 0 0 .326-.327v-.87c0-.517.408-.925.924-.925M28.067 84.083h-1.684c.163 0 .299.136.299.3v1.087c0 .082.081.163.163.163h.842c.081 0 .163.082.163.164v.462c0 .082-.082.163-.163.163h-.842a.175.175 0 0 0-.163.163v.463c0 .081.081.163.163.163h1.222c.082 0 .163.082.163.163v.463a.175.175 0 0 1-.163.163h-1.983a.175.175 0 0 1-.163-.163v-4.325c0-.082.081-.164.163-.164h1.983c.082 0 .163.082.163.164v.462c0 .027-.081.109-.163.109"/><path fill-rule="evenodd" d="M29.372 83.294v4.652h1.712c.326-.028.597-.3.597-.626v-3.4c0-.327-.271-.599-.597-.626zm1.358 3.835c-.054.028-.081.028-.136.028h-.271a.175.175 0 0 1-.163-.163v-2.64c0-.162-.109-.298-.272-.298h.734c.027 0 .081 0 .108.027a.25.25 0 0 1 .163.163c.027.027.027.055.027.109v2.475c0 .055 0 .11-.027.136a.25.25 0 0 1-.163.163" clip-rule="evenodd"/><path d="M32.768 83.457c0-.081.082-.163.163-.163h.462c.082 0 .163.082.163.163v3.537c0 .081.082.163.163.163h.598v-3.7c0-.081.082-.163.163-.163h.462c.082 0 .163.082.163.163v4.489h-1.739c-.326-.028-.598-.3-.598-.626zM37.822 84.681c0 .082.082.163.163.163v.028h.49a.175.175 0 0 0 .163-.163v-1.17a.29.29 0 0 0-.272-.218h-1.902a.175.175 0 0 0-.163.163v4.326c0 .081.081.163.163.163h1.902a.265.265 0 0 0 .272-.218v-1.17a.175.175 0 0 0-.163-.163h-.462a.175.175 0 0 0-.163.163v.436a.175.175 0 0 1-.163.163h-.462a.175.175 0 0 1-.163-.163v-2.639c0-.163-.136-.3-.3-.3h.897c.082 0 .163.083.163.164z"/><path fill-rule="evenodd" d="M41.708 83.294c.163 0 .3.136.3.3v4.161c0 .109-.082.163-.164.163h-.462a.175.175 0 0 1-.163-.163v-1.224a.175.175 0 0 0-.163-.163h-.598v1.387a.175.175 0 0 1-.163.163h-.434a.175.175 0 0 1-.164-.163v-4.162c0-.163.136-.299.3-.299zm-.489.952a.175.175 0 0 0-.163-.163h-.897c.163 0 .3.136.3.3v1.087c0 .082.08.163.162.163h.462c.082 0 .163-.054.163-.163v-1.224z" clip-rule="evenodd"/><path d="M45.431 83.92v-.463c0-.081-.082-.136-.136-.163h-2.038c-.081 0-.136.082-.136.163v.463c0 .081.055.163.136.163h.625v3.7c0 .081.082.163.163.163h.462a.175.175 0 0 0 .163-.164v-3.4c0-.163-.136-.3-.299-.3h.924c.054 0 .136-.08.136-.162M47.252 87.782a.175.175 0 0 1-.163.164h-.462a.175.175 0 0 1-.163-.164v-4.325c0-.081.081-.163.163-.163h.462c.081 0 .163.082.163.163z"/><path fill-rule="evenodd" d="M48.339 87.429a.62.62 0 0 0 .461.462c.028.027.082.027.11.027.38.028.733.028 1.113 0 .326-.027.598-.299.598-.625V83.92c0-.327-.272-.599-.598-.626a8 8 0 0 0-1.114 0 .626.626 0 0 0-.598.626v3.373q.001.017.01.046c.008.026.018.058.018.09m1.521-.463a.25.25 0 0 1-.163.163c-.054.028-.081.028-.109.028-.136.027-.299.027-.407-.082-.054-.082-.082-.136-.082-.218v-2.475c0-.163-.108-.3-.271-.3h.76c.028 0 .082 0 .11.028a.25.25 0 0 1 .162.163c.027.028.027.055.027.11v2.475c0 .027 0 .081-.027.108" clip-rule="evenodd"/><path d="M54.072 83.92v3.862a.175.175 0 0 1-.163.164h-.462a.175.175 0 0 1-.163-.164v-3.536a.175.175 0 0 0-.163-.163h-.897c.163 0 .3.136.3.3v3.4a.175.175 0 0 1-.164.163h-.462a.175.175 0 0 1-.163-.164v-4.488h1.74c.325.027.597.3.597.626"/><path fill-rule="evenodd" d="M34.045 62.212a.83.83 0 0 0 .788-.816v-2.693c0-.925-.706-1.66-1.603-1.714.924-.054 1.604-.789 1.604-1.714v-3.971c0-.898-.707-1.66-1.604-1.687h-4.673v12.595h1.657a.43.43 0 0 0 .435-.435v-2.965a.83.83 0 0 0-.788-.816h2.473c.217.027.407.19.407.435v3.319c0 .244.19.435.435.435h.87zm-1.304-6.746c0 .245-.163.435-.407.435h-1.278c-.244 0-.407-.19-.407-.435v-2.938a.83.83 0 0 0-.788-.816h2.092c.408.027.788.38.788.816zM44.1 50.433v11.29c0 .271-.19.462-.462.462h-1.223a.43.43 0 0 1-.435-.435v-3.32a.43.43 0 0 0-.435-.434h-1.657v3.754a.43.43 0 0 1-.435.435H38.23c-.244 0-.435-.19-.435-.463V50.433c0-.435.353-.788.788-.816h4.728c.435.028.788.381.788.816m-2.528 5.468a.43.43 0 0 0 .435-.435v-3.292a.43.43 0 0 0-.435-.435h-2.445c.434 0 .788.38.788.816v2.91c0 .246.19.436.434.436z" clip-rule="evenodd"/><path d="M53.61 61.75V51.304c0-.898-.706-1.66-1.603-1.687h-4.674V61.75c0 .244.19.435.435.435h1.223a.43.43 0 0 0 .434-.435v-9.222a.83.83 0 0 0-.788-.816h2.446a.43.43 0 0 1 .435.435v9.603c0 .244.19.435.434.435h1.223c.218 0 .435-.19.435-.435M58.691 55.901h2.5a.43.43 0 0 1 .435.435v5.033a.83.83 0 0 1-.788.816h-5.054a.43.43 0 0 1-.435-.435V50.053a.43.43 0 0 1 .435-.436h5.163c.434.028.788.381.788.816v2.938a.43.43 0 0 1-.435.435h-1.223a.43.43 0 0 1-.435-.435v-1.224a.43.43 0 0 0-.434-.435h-2.555c.435.027.788.38.788.816v7.127c0 .245.19.435.435.435H59.1a.43.43 0 0 0 .435-.435v-1.224a.43.43 0 0 0-.435-.435h-.408a.43.43 0 0 1-.434-.436v-1.224a.43.43 0 0 1 .434-.435M17.905 65.721H13.23V76.63H8.367s-1.658-.244-1.576-1.74c.272.625.87 1.06 1.576 1.06.951 0 1.712-.761 1.712-1.713s-.761-1.714-1.712-1.714h-.19c-1.93 0-3.017 1.66-2.582 3.536 0 .027 0 .054.027.082.979 2.448 4.566 2.203 4.566 2.203h4.7a.43.43 0 0 0 .435-.435v-9.222a.83.83 0 0 0-.788-.816h2.446a.43.43 0 0 1 .434.435v9.603c0 .245.19.435.435.435h1.223a.43.43 0 0 0 .435-.435V67.462c0-.952-.68-1.714-1.603-1.74M28.176 65.721c.435.027.788.381.788.816v2.938a.43.43 0 0 1-.435.435h-1.223a.43.43 0 0 1-.434-.435v-1.224a.43.43 0 0 0-.435-.435h-2.446c.435.027.788.38.788.816v7.127c0 .245.19.435.435.435h1.223a.43.43 0 0 0 .435-.435v-1.224a.43.43 0 0 0-.435-.435h-.408a.43.43 0 0 1-.434-.436V72.44a.43.43 0 0 1 .434-.435h2.5a.43.43 0 0 1 .435.435v5.033a.83.83 0 0 1-.788.816h-5.054a.43.43 0 0 1-.435-.436V66.157a.43.43 0 0 1 .435-.435zM38.067 65.748h-1.223a.43.43 0 0 0-.434.436V76.22h-1.658a.43.43 0 0 1-.435-.435v-9.602a.43.43 0 0 0-.435-.436H32.66a.43.43 0 0 0-.435.436v10.445c0 .898.706 1.66 1.603 1.687h4.674v-12.16c0-.217-.19-.408-.435-.408M46.382 65.721h1.223c.217 0 .407.19.489.435v5.223c0 .925-.707 1.66-1.603 1.714h-1.277c.434 0 .788.38.788.816v3.972a.43.43 0 0 1-.435.435h-1.223a.43.43 0 0 1-.435-.435v-4.788h-.489a1.703 1.703 0 0 1-1.603-1.714v-5.223c0-.244.163-.435.407-.435h1.223a.43.43 0 0 1 .435.435v5.44c0 .246.163.436.408.436h1.25c.244 0 .407-.19.407-.435v-5.44a.43.43 0 0 1 .435-.436M56.844 65.721h-5.408a.43.43 0 0 0-.434.435v11.697c0 .245.19.436.434.436h5.408a.43.43 0 0 0 .434-.436V76.63a.43.43 0 0 0-.434-.435h-3.315a.43.43 0 0 1-.435-.435v-1.224a.43.43 0 0 1 .435-.435h2.282a.43.43 0 0 0 .435-.436V72.44a.43.43 0 0 0-.435-.435H53.53c-.245 0-.408-.19-.408-.435v-2.938a.83.83 0 0 0-.788-.816h4.538c.217 0 .407-.19.407-.436v-1.224a.43.43 0 0 0-.434-.435M71.68 72.495h.109c1.93 0 3.016 1.659 2.636 3.536-.028.027-.028.054-.028.081-.978 2.449-4.565 2.204-4.565 2.204h-4.646a.43.43 0 0 1-.435-.435v-9.603a.43.43 0 0 0-.435-.435h-2.445c.434.027.788.38.788.816v9.222a.43.43 0 0 1-.435.435H61a.43.43 0 0 1-.435-.435V65.72h4.674c.897.027 1.603.79 1.603 1.687v9.194H71.6s1.657-.245 1.576-1.74a1.69 1.69 0 0 1-1.576 1.06c-.951 0-1.74-.789-1.712-1.768.027-.925.842-1.66 1.793-1.66M43.691 29.46q-.268.209-.543.435c-6.23 4.85-15.413 6.668-16.051 6.794l-.035.007-1.658-3.264c7.728-.495 10.921-1.539 14.113-2.582l.425-.138c-1.386.136-3.07-.11-4.864-1.252-3.125-1.986-3.26-5.63-2.717-8.541.04-.306.112-.596.179-.87q.035-.14.065-.273l.951-2.856s-.163-.055-.326-.136c-2.69-1.197-5.489-2.83-8.152-5.767-.217-3.373.027-6.447.272-8.732L25.567 0c1.63 7.345 6.712 12.894 13.614 14.961-.081.245-.462 1.36-1.956 5.658 0 0-.462 1.388-.326 3.156.081.598.407 2.312 2.065 3.835 2.054 1.894 4.511 1.716 5.099 1.554q-.18.147-.372.296M44.063 29.164l.01-.003.026-.027z"/><path fill-rule="evenodd" d="M58.474 10.31s-.87.925-2.473 2.013v-.027c-.19.136-.38.272-.57.38-1.25.816-2.908 1.66-4.864 2.285-1.848.572-3.805.816-5.815.816-1.685 0-3.098-.19-4.674-.598l-1.875 5.44 7.581-.108c2.174-.218 2.174 2.067 2.174 2.067-.109 10.419-19.266 15.016-19.266 15.016l1.63 3.427c20.462-5.14 19.375-21.38 19.022-22.088 1.277-.544 6.032-2.802 9.13-8.623m-10.489 7.236a.925.925 0 0 1-1.06.788.926.926 0 0 1-.788-1.06.925.925 0 0 1 1.06-.79c.517.055.87.545.788 1.062" clip-rule="evenodd"/><path d="M24.997 12.35s2.826 3.183 7.445 5.06c-.163.408-.543 1.577-.68 2.013-4.89-1.415-6.765-2.965-6.765-2.965zM32.904 28.943s1.196 1.442 3.043 2.04c-5.543 1.36-12.418 1.28-12.418 1.252-2.119-5.168-2.038-5.005-2.038-5.005 4.324 1.088 9.189 1.517 11.048 1.681z"/></g></svg>